# Blender 4.0.2
# www.blender.org
mtllib crap lil shield.mtl
o Cube.001
v 0.575899 -0.717230 1.947858
v 0.575899 2.856206 1.947858
v 0.575899 -0.717230 -1.947858
v 0.575899 2.856206 -1.947858
v 0.732729 -0.717230 1.947858
v 0.732729 2.856206 1.947858
v 0.732729 -0.717230 -1.947858
v 0.732729 2.856206 -1.947858
v -0.078415 -1.471755 0.000000
v -0.078415 2.856206 0.000000
v 0.078415 -1.471755 0.000000
v 0.078415 2.856206 0.000000
vn -0.9479 -0.0000 -0.3184
vn -0.0000 -0.0000 -1.0000
vn 0.9479 -0.0000 -0.3184
vn -0.0000 -0.0000 1.0000
vn -0.0000 -0.9325 0.3612
vn -0.0000 1.0000 -0.0000
vn -0.0000 -0.9325 -0.3612
vn 0.9479 -0.0000 0.3184
vn -0.9479 -0.0000 0.3184
vt 0.375000 0.125000
vt 0.625000 0.125000
vt 0.625000 0.250000
vt 0.375000 0.250000
vt 0.625000 0.500000
vt 0.375000 0.500000
vt 0.375000 0.625000
vt 0.625000 0.625000
vt 0.625000 0.750000
vt 0.375000 0.750000
vt 0.625000 1.000000
vt 0.375000 1.000000
vt 0.125000 0.625000
vt 0.125000 0.750000
vt 0.875000 0.625000
vt 0.875000 0.750000
vt 0.875000 0.500000
vt 0.125000 0.500000
vt 0.375000 0.000000
vt 0.625000 0.000000
s 0
f 9/1/1 10/2/1 4/3/1 3/4/1
f 3/4/2 4/3/2 8/5/2 7/6/2
f 11/7/3 12/8/3 6/9/3 5/10/3
f 5/10/4 6/9/4 2/11/4 1/12/4
f 9/13/5 11/7/5 5/10/5 1/14/5
f 12/8/6 10/15/6 2/16/6 6/9/6
f 8/5/6 4/17/6 10/15/6 12/8/6
f 3/18/7 7/6/7 11/7/7 9/13/7
f 7/6/8 8/5/8 12/8/8 11/7/8
f 1/19/9 2/20/9 10/2/9 9/1/9
