# Blender 4.0.2
# www.blender.org
mtllib hp cross.mtl
o Cube
v 0.200000 0.200000 -1.000000
v 0.200000 -0.200000 -1.000000
v 0.200000 0.200000 1.000000
v 0.200000 -0.200000 1.000000
v -0.200000 0.200000 -1.000000
v -0.200000 -0.200000 -1.000000
v -0.200000 0.200000 1.000000
v -0.200000 -0.200000 1.000000
v -0.200000 -0.200000 0.000000
v 0.200000 0.200000 0.000000
v -0.200000 0.200000 0.000000
v 0.200000 -0.200000 0.000000
v -0.200000 -0.200000 0.500000
v 0.200000 0.200000 0.500000
v -0.200000 0.200000 0.500000
v 0.200000 -0.200000 0.500000
v -0.200000 0.200000 -0.500000
v 0.200000 -0.200000 -0.500000
v -0.200000 -0.200000 -0.500000
v 0.200000 0.200000 -0.500000
v -0.200000 -0.200000 -0.250000
v 0.200000 0.200000 -0.250000
v -0.200000 0.200000 -0.250000
v 0.200000 -0.200000 -0.250000
v -0.200000 0.200000 0.250000
v 0.200000 -0.200000 0.250000
v -0.200000 -0.200000 0.250000
v 0.200000 0.200000 0.250000
v 0.200000 0.900000 -0.250000
v 0.200000 0.900000 0.000000
v -0.200000 0.900000 0.250000
v -0.200000 0.900000 0.000000
v -0.200000 0.900000 -0.250000
v 0.200000 0.900000 0.250000
v -0.200000 -0.900000 -0.250000
v -0.200000 -0.900000 0.000000
v 0.200000 -0.900000 0.250000
v 0.200000 -0.900000 0.000000
v 0.200000 -0.900000 -0.250000
v -0.200000 -0.900000 0.250000
vn -0.0000 1.0000 -0.0000
vn -0.0000 -0.0000 1.0000
vn -1.0000 -0.0000 -0.0000
vn -0.0000 -1.0000 -0.0000
vn 1.0000 -0.0000 -0.0000
vn -0.0000 -0.0000 -1.0000
vt 0.625000 0.687500
vt 0.875000 0.687500
vt 0.875000 0.750000
vt 0.625000 0.750000
vt 0.375000 0.750000
vt 0.625000 1.000000
vt 0.375000 1.000000
vt 0.375000 0.187500
vt 0.625000 0.187500
vt 0.625000 0.250000
vt 0.375000 0.250000
vt 0.125000 0.687500
vt 0.375000 0.687500
vt 0.125000 0.750000
vt 0.625000 0.500000
vt 0.375000 0.500000
vt 0.375000 0.593750
vt 0.625000 0.593750
vt 0.625000 0.625000
vt 0.375000 0.625000
vt 0.375000 0.656250
vt 0.375000 0.093750
vt 0.625000 0.093750
vt 0.625000 0.125000
vt 0.375000 0.125000
vt 0.625000 0.656250
vt 0.375000 0.000000
vt 0.625000 0.000000
vt 0.625000 0.062500
vt 0.375000 0.062500
vt 0.125000 0.656250
vt 0.875000 0.656250
vt 0.875000 0.500000
vt 0.875000 0.562500
vt 0.625000 0.562500
vt 0.125000 0.500000
vt 0.375000 0.562500
vt 0.125000 0.562500
vt 0.375000 0.156250
vt 0.625000 0.156250
vt 0.875000 0.593750
vt 0.125000 0.593750
vt 0.875000 0.625000
vt 0.125000 0.625000
s 0
usemtl Material
f 14/1/1 15/2/1 7/3/1 3/4/1
f 4/5/2 3/4/2 7/6/2 8/7/2
f 19/8/3 17/9/3 5/10/3 6/11/3
f 13/12/4 16/13/4 4/5/4 8/14/4
f 16/13/5 14/1/5 3/4/5 4/5/5
f 6/11/6 5/10/6 1/15/6 2/16/6
f 24/17/5 22/18/5 10/19/5 12/20/5
f 12/20/5 26/21/5 37/21/5 38/20/5
f 27/22/3 25/23/3 11/24/3 9/25/3
f 28/26/5 10/19/5 30/19/5 34/26/5
f 8/27/3 7/28/3 15/29/3 13/30/3
f 26/21/5 28/26/5 14/1/5 16/13/5
f 27/31/4 26/21/4 16/13/4 13/12/4
f 28/26/1 25/32/1 15/2/1 14/1/1
f 1/15/1 5/33/1 17/34/1 20/35/1
f 6/36/4 2/16/4 18/37/4 19/38/4
f 2/16/5 1/15/5 20/35/5 18/37/5
f 21/39/3 23/40/3 17/9/3 19/8/3
f 9/25/3 11/24/3 23/40/3 21/39/3
f 20/35/1 17/34/1 23/41/1 22/18/1
f 19/38/4 18/37/4 24/17/4 21/42/4
f 18/37/5 20/35/5 22/18/5 24/17/5
f 23/40/3 11/24/3 32/24/3 33/40/3
f 24/17/5 12/20/5 38/20/5 39/17/5
f 12/20/5 10/19/5 28/26/5 26/21/5
f 13/30/3 15/29/3 25/23/3 27/22/3
f 29/18/1 33/41/1 32/43/1 30/19/1
f 30/19/1 32/43/1 31/32/1 34/26/1
f 11/24/3 25/23/3 31/23/3 32/24/3
f 22/18/6 23/41/6 33/41/6 29/18/6
f 25/32/2 28/26/2 34/26/2 31/32/2
f 10/19/5 22/18/5 29/18/5 30/19/5
f 35/42/4 39/17/4 38/20/4 36/44/4
f 36/44/4 38/20/4 37/21/4 40/31/4
f 27/22/3 9/25/3 36/25/3 40/22/3
f 21/42/6 24/17/6 39/17/6 35/42/6
f 26/21/2 27/31/2 40/31/2 37/21/2
f 9/25/3 21/39/3 35/39/3 36/25/3
